<svg version="1.1" id="Layer_1" xmlns="http://www.w3.org/2000/svg" xmlns:xlink="http://www.w3.org/1999/xlink" x="0px" y="0px"
	 width="100%" viewBox="0 0 500 500" enable-background="new 0 0 500 500" xml:space="preserve">
<path fill="#000000" opacity="1.000000" stroke="none" 
	d="
M263.000000,501.000000 
	C175.333359,501.000000 88.166710,501.000000 1.000047,501.000000 
	C1.000031,334.333405 1.000031,167.666794 1.000016,1.000136 
	C167.666565,1.000091 334.333130,1.000091 500.999756,1.000045 
	C500.999847,167.666519 500.999847,334.333038 500.999939,500.999786 
	C421.833344,501.000000 342.666656,501.000000 263.000000,501.000000 
M412.603577,423.107666 
	C447.493378,395.511444 466.179169,359.885590 466.178162,314.998474 
	C466.177246,275.507141 466.319397,236.014984 466.083618,196.525055 
	C466.021149,186.059540 465.410614,175.518219 464.010071,165.152451 
	C454.285522,93.178047 401.715393,48.657459 332.305847,44.168102 
	C308.402222,42.622036 284.346344,43.239510 260.359894,43.233566 
	C245.510376,43.229885 231.249619,46.733391 218.334305,54.031170 
	C187.976944,71.184532 173.114883,97.778503 173.059952,132.385559 
	C172.892014,238.195404 172.997849,344.005676 173.008286,449.815765 
	C173.008453,451.413940 173.150909,453.012115 173.221466,454.494904 
	C173.958206,454.668488 174.268967,454.807068 174.579025,454.805573 
	C225.723419,454.558289 276.878876,454.857758 328.007965,453.836914 
	C359.097137,453.216187 387.108551,442.184021 412.603577,423.107666 
M37.210804,394.499878 
	C37.210804,414.715546 37.210804,434.931244 37.210804,455.119324 
	C69.275879,455.787842 100.980446,431.798645 100.891014,395.358429 
	C100.719345,325.407288 100.841026,255.455399 100.841011,185.503830 
	C100.841011,183.943741 100.841011,182.383652 100.841011,180.864349 
	C70.135712,179.734604 36.886692,203.516693 37.129742,241.105850 
	C37.458187,291.901886 37.210941,342.701660 37.210804,394.499878 
M36.922443,81.530487 
	C18.117893,110.521820 40.154964,142.479111 66.771217,143.371246 
	C82.989922,143.914841 95.352463,137.555283 103.438965,123.878494 
	C112.066719,109.286270 111.118408,94.262192 101.160248,80.746841 
	C85.033890,58.859932 54.673038,59.231522 36.922443,81.530487 
z"/>
<path fill="#FEFEFE" opacity="1.000000" stroke="none" 
	d="
M412.328003,423.334015 
	C387.108551,442.184021 359.097137,453.216187 328.007965,453.836914 
	C276.878876,454.857758 225.723419,454.558289 174.579025,454.805573 
	C174.268967,454.807068 173.958206,454.668488 173.221466,454.494904 
	C173.150909,453.012115 173.008453,451.413940 173.008286,449.815765 
	C172.997849,344.005676 172.892014,238.195404 173.059952,132.385559 
	C173.114883,97.778503 187.976944,71.184532 218.334305,54.031170 
	C231.249619,46.733391 245.510376,43.229885 260.359894,43.233566 
	C284.346344,43.239510 308.402222,42.622036 332.305847,44.168102 
	C401.715393,48.657459 454.285522,93.178047 464.010071,165.152451 
	C465.410614,175.518219 466.021149,186.059540 466.083618,196.525055 
	C466.319397,236.014984 466.177246,275.507141 466.178162,314.998474 
	C466.179169,359.885590 447.493378,395.511444 412.328003,423.334015 
M262.234528,148.500977 
	C262.234528,221.379120 262.234528,294.257263 262.234528,367.241730 
	C281.895020,367.241730 300.865509,367.539642 319.817108,367.071716 
	C326.011108,366.918762 332.467651,365.595215 338.269135,363.395905 
	C363.043121,354.004272 378.931580,330.174377 379.039032,302.699890 
	C379.174530,268.049011 379.116333,233.397095 379.025116,198.745941 
	C379.011566,193.605652 378.654022,188.426300 377.952057,183.334457 
	C374.311554,156.928574 351.533203,133.676559 325.018402,131.001404 
	C309.672180,129.453079 294.078186,130.345932 278.595306,130.175308 
	C273.309692,130.117050 268.022888,130.166061 262.234467,130.166061 
	C262.234467,136.264114 262.234467,141.883011 262.234528,148.500977 
z"/>
<path fill="#FDFDFD" opacity="1.000000" stroke="none" 
	d="
M37.210754,393.999847 
	C37.210941,342.701660 37.458187,291.901886 37.129742,241.105850 
	C36.886692,203.516693 70.135712,179.734604 100.841011,180.864349 
	C100.841011,182.383652 100.841011,183.943741 100.841011,185.503830 
	C100.841026,255.455399 100.719345,325.407288 100.891014,395.358429 
	C100.980446,431.798645 69.275879,455.787842 37.210804,455.119324 
	C37.210804,434.931244 37.210804,414.715546 37.210754,393.999847 
z"/>
<path fill="#EE0101" opacity="1.000000" stroke="none" 
	d="
M37.145325,81.243828 
	C54.673038,59.231522 85.033890,58.859932 101.160248,80.746841 
	C111.118408,94.262192 112.066719,109.286270 103.438965,123.878494 
	C95.352463,137.555283 82.989922,143.914841 66.771217,143.371246 
	C40.154964,142.479111 18.117893,110.521820 37.145325,81.243828 
z"/>
<path fill="#010101" opacity="1.000000" stroke="none" 
	d="
M262.234497,148.001434 
	C262.234467,141.883011 262.234467,136.264114 262.234467,130.166061 
	C268.022888,130.166061 273.309692,130.117050 278.595306,130.175308 
	C294.078186,130.345932 309.672180,129.453079 325.018402,131.001404 
	C351.533203,133.676559 374.311554,156.928574 377.952057,183.334457 
	C378.654022,188.426300 379.011566,193.605652 379.025116,198.745941 
	C379.116333,233.397095 379.174530,268.049011 379.039032,302.699890 
	C378.931580,330.174377 363.043121,354.004272 338.269135,363.395905 
	C332.467651,365.595215 326.011108,366.918762 319.817108,367.071716 
	C300.865509,367.539642 281.895020,367.241730 262.234528,367.241730 
	C262.234528,294.257263 262.234528,221.379120 262.234497,148.001434 
z"/>
</svg>