<svg version="1.1" id="Layer_1" xmlns="http://www.w3.org/2000/svg" xmlns:xlink="http://www.w3.org/1999/xlink" x="0px" y="0px"
	 width="100%" viewBox="0 0 343 326" enable-background="new 0 0 343 326" xml:space="preserve">
<path fill="#010101" opacity="1.000000" stroke="none" 
	d="
M188.000000,327.000000 
	C125.333336,327.000000 63.166668,327.000000 1.000000,327.000000 
	C1.000000,218.333328 1.000000,109.666664 1.000000,1.000000 
	C115.333336,1.000000 229.666672,1.000000 344.000000,1.000000 
	C344.000000,109.666664 344.000000,218.333328 344.000000,327.000000 
	C292.166656,327.000000 240.333328,327.000000 188.000000,327.000000 
M267.393524,207.087662 
	C275.210541,199.150253 283.546356,191.653320 290.737213,183.184250 
	C305.968994,165.244965 313.388397,144.076782 312.662445,120.616760 
	C311.783203,92.204521 301.306641,67.822868 279.028229,49.403610 
	C248.742859,24.364380 215.042603,19.694618 178.582901,33.526173 
	C160.418213,40.417233 147.323669,54.033638 134.382263,67.743393 
	C126.869873,75.701813 126.783310,86.623344 134.019913,93.617325 
	C141.064911,100.426125 152.344467,99.996521 160.040604,92.548973 
	C165.187012,87.568802 170.030746,82.255966 175.380417,77.509544 
	C189.642242,64.855881 206.487549,59.432369 225.246216,62.552723 
	C248.731918,66.459381 265.433594,79.759918 273.384552,102.435524 
	C281.265015,124.910202 276.537048,145.377258 260.919006,163.220779 
	C256.211060,168.599548 250.851883,173.404953 245.850555,178.531052 
	C238.932968,185.621262 237.942780,195.091232 243.262100,202.554367 
	C248.592697,210.033310 257.672974,211.947784 267.393524,207.087662 
M135.470383,311.084015 
	C136.465179,310.992340 137.472534,310.971710 138.452957,310.798553 
	C160.650696,306.878540 179.410553,296.620880 194.859940,280.229431 
	C198.402466,276.470886 202.140915,272.896332 205.662857,269.119293 
	C212.212860,262.094910 212.218643,251.494400 205.781265,244.703506 
	C199.300888,237.867279 188.040375,237.220642 180.916916,243.661270 
	C174.865616,249.132507 169.396072,255.248795 163.325775,260.697113 
	C141.446930,280.334229 107.452148,281.085754 84.840996,262.616669 
	C61.242596,243.341202 54.825283,210.592056 70.876869,184.958786 
	C76.781700,175.529205 85.490784,167.823563 93.121521,159.515991 
	C100.545166,151.433884 101.257492,140.298416 94.478920,133.452789 
	C87.042213,125.942513 75.912422,126.162575 67.701439,134.118484 
	C63.274643,138.407776 59.011681,142.867676 54.717934,147.292465 
	C33.805756,168.842896 24.394125,194.659698 27.005182,224.522797 
	C29.421038,252.153366 42.185356,274.523621 63.802341,291.657440 
	C84.540878,308.094940 108.483124,313.718964 135.470383,311.084015 
M180.612244,183.112396 
	C196.990585,166.764786 213.427338,150.475082 229.721924,134.044403 
	C237.536179,126.164886 237.453629,115.264778 229.842819,107.821938 
	C222.826996,100.960922 212.115936,101.388908 204.455521,108.915611 
	C198.280975,114.982376 192.180817,121.124908 186.053619,127.239807 
	C160.719086,152.523468 135.425064,177.847931 110.023323,203.063904 
	C104.564476,208.482803 102.352821,214.726089 104.451218,222.083252 
	C108.229782,235.331299 124.192108,239.109802 134.455856,229.068573 
	C149.806229,214.051010 164.905823,198.777115 180.612244,183.112396 
z"/>
<path fill="#FDFDFD" opacity="1.000000" stroke="none" 
	d="
M267.083679,207.299622 
	C257.672974,211.947784 248.592697,210.033310 243.262100,202.554367 
	C237.942780,195.091232 238.932968,185.621262 245.850555,178.531052 
	C250.851883,173.404953 256.211060,168.599548 260.919006,163.220779 
	C276.537048,145.377258 281.265015,124.910202 273.384552,102.435524 
	C265.433594,79.759918 248.731918,66.459381 225.246216,62.552723 
	C206.487549,59.432369 189.642242,64.855881 175.380417,77.509544 
	C170.030746,82.255966 165.187012,87.568802 160.040604,92.548973 
	C152.344467,99.996521 141.064911,100.426125 134.019913,93.617325 
	C126.783310,86.623344 126.869873,75.701813 134.382263,67.743393 
	C147.323669,54.033638 160.418213,40.417233 178.582901,33.526173 
	C215.042603,19.694618 248.742859,24.364380 279.028229,49.403610 
	C301.306641,67.822868 311.783203,92.204521 312.662445,120.616760 
	C313.388397,144.076782 305.968994,165.244965 290.737213,183.184250 
	C283.546356,191.653320 275.210541,199.150253 267.083679,207.299622 
z"/>
<path fill="#FDFDFD" opacity="1.000000" stroke="none" 
	d="
M135.020935,311.112854 
	C108.483124,313.718964 84.540878,308.094940 63.802341,291.657440 
	C42.185356,274.523621 29.421038,252.153366 27.005182,224.522797 
	C24.394125,194.659698 33.805756,168.842896 54.717934,147.292465 
	C59.011681,142.867676 63.274643,138.407776 67.701439,134.118484 
	C75.912422,126.162575 87.042213,125.942513 94.478920,133.452789 
	C101.257492,140.298416 100.545166,151.433884 93.121521,159.515991 
	C85.490784,167.823563 76.781700,175.529205 70.876869,184.958786 
	C54.825283,210.592056 61.242596,243.341202 84.840996,262.616669 
	C107.452148,281.085754 141.446930,280.334229 163.325775,260.697113 
	C169.396072,255.248795 174.865616,249.132507 180.916916,243.661270 
	C188.040375,237.220642 199.300888,237.867279 205.781265,244.703506 
	C212.218643,251.494400 212.212860,262.094910 205.662857,269.119293 
	C202.140915,272.896332 198.402466,276.470886 194.859940,280.229431 
	C179.410553,296.620880 160.650696,306.878540 138.452957,310.798553 
	C137.472534,310.971710 136.465179,310.992340 135.020935,311.112854 
z"/>
<path fill="#FEFEFE" opacity="1.000000" stroke="none" 
	d="
M180.362183,183.362335 
	C164.905823,198.777115 149.806229,214.051010 134.455856,229.068573 
	C124.192108,239.109802 108.229782,235.331299 104.451218,222.083252 
	C102.352821,214.726089 104.564476,208.482803 110.023323,203.063904 
	C135.425064,177.847931 160.719086,152.523468 186.053619,127.239807 
	C192.180817,121.124908 198.280975,114.982376 204.455521,108.915611 
	C212.115936,101.388908 222.826996,100.960922 229.842819,107.821938 
	C237.453629,115.264778 237.536179,126.164886 229.721924,134.044403 
	C213.427338,150.475082 196.990585,166.764786 180.362183,183.362335 
z"/>
</svg>