<svg width="22" height="22" viewBox="0 0 22 22" fill="none" xmlns="http://www.w3.org/2000/svg">
<path d="M9.99168 1.92502C5.77501 2.38335 2.38334 5.77502 1.92501 9.90002C1.46667 14.2084 3.94167 18.0584 7.70001 19.525C7.97501 19.6167 8.25001 19.4334 8.25001 19.0667V17.6C8.25001 17.6 7.88334 17.6917 7.42501 17.6917C6.14168 17.6917 5.59168 16.5917 5.50001 15.95C5.40834 15.5834 5.22501 15.3084 4.95001 15.0334C4.67501 14.9417 4.58334 14.9417 4.58334 14.85C4.58334 14.6667 4.85834 14.6667 4.95001 14.6667C5.50001 14.6667 5.95834 15.3084 6.14167 15.5834C6.60001 16.3167 7.15001 16.5 7.42501 16.5C7.79168 16.5 8.06668 16.4084 8.25001 16.3167C8.34168 15.675 8.61667 15.0334 9.16668 14.6667C7.05834 14.2084 5.50001 13.0167 5.50001 11C5.50001 9.99169 5.95834 8.98335 6.60001 8.25002C6.50834 8.06669 6.41668 7.60835 6.41668 6.96669C6.41668 6.60002 6.41668 6.05002 6.69168 5.50002C6.69168 5.50002 7.97501 5.50002 9.25834 6.69169C9.71668 6.50835 10.3583 6.41669 11 6.41669C11.6417 6.41669 12.2833 6.50835 12.8333 6.69169C14.025 5.50002 15.4 5.50002 15.4 5.50002C15.5833 6.05002 15.5833 6.60002 15.5833 6.96669C15.5833 7.70002 15.4917 8.06669 15.4 8.25002C16.0417 8.98335 16.5 9.90002 16.5 11C16.5 13.0167 14.9417 14.2084 12.8333 14.6667C13.3833 15.125 13.75 15.95 13.75 16.775V19.1584C13.75 19.4334 14.025 19.7084 14.3917 19.6167C17.7833 18.2417 20.1667 14.9417 20.1667 11.0917C20.1667 5.59169 15.4917 1.28335 9.99168 1.92502Z" fill="white"/>
</svg>
