<svg width="23" height="14" viewBox="0 0 23 14" fill="none" xmlns="http://www.w3.org/2000/svg">
<path fill-rule="evenodd" clip-rule="evenodd" d="M11.8892 0.33313C8.95583 0.33313 7.12249 1.7998 6.38916 4.73313C7.48916 3.26646 8.77249 2.71646 10.2392 3.08313C11.076 3.29213 11.674 3.89957 12.3361 4.57139C13.4145 5.66609 14.6628 6.93313 17.3892 6.93313C20.3225 6.93313 22.1558 5.46646 22.8892 2.53313C21.7892 3.9998 20.5058 4.5498 19.0392 4.18313C18.2023 3.97413 17.6043 3.36668 16.9422 2.69487C15.8638 1.60017 14.6155 0.33313 11.8892 0.33313ZM6.38916 6.93313C3.45583 6.93313 1.62249 8.3998 0.88916 11.3331C1.98916 9.86646 3.27249 9.31646 4.73916 9.68313C5.57597 9.89254 6.17405 10.4996 6.83609 11.1714C7.91449 12.2661 9.16279 13.5331 11.8892 13.5331C14.8225 13.5331 16.6558 12.0665 17.3892 9.13313C16.2892 10.5998 15.0058 11.1498 13.5392 10.7831C12.7023 10.5741 12.1043 9.96668 11.4422 9.29487C10.3638 8.20017 9.11553 6.93313 6.38916 6.93313Z" fill="white"/>
</svg>
