<svg width="22" height="22" viewBox="0 0 22 22" fill="none" xmlns="http://www.w3.org/2000/svg">
<g clip-path="url(#clip0_3_839)">
<g filter="url(#filter0_d_3_839)">
<mask id="mask0_3_839" style="mask-type:alpha" maskUnits="userSpaceOnUse" x="0" y="0" width="22" height="22">
<path fill-rule="evenodd" clip-rule="evenodd" d="M15.6006 21.9059C15.9471 22.0416 16.3422 22.033 16.6919 21.8638L21.2213 19.6731C21.6973 19.443 22 18.9588 22 18.4276V3.57262C22 3.04143 21.6973 2.55724 21.2213 2.32703L16.6919 0.136195C16.233 -0.0857981 15.6958 -0.0314348 15.293 0.262959C15.2354 0.304999 15.1806 0.351967 15.1292 0.403704L6.45812 8.35549L2.68118 5.4736C2.3296 5.20535 1.8378 5.22733 1.51126 5.52592L0.299865 6.63355C-0.0995725 6.99879 -0.100008 7.63041 0.298879 7.99625L3.57436 11L0.298879 14.0038C-0.100008 14.3696 -0.0995725 15.0013 0.299865 15.3665L1.51126 16.4741C1.8378 16.7727 2.3296 16.7948 2.68118 16.5264L6.45812 13.6446L15.1292 21.5963C15.2663 21.7343 15.4274 21.8382 15.6006 21.9059ZM16.5033 5.97989L9.92402 11L16.5033 16.0202V5.97989Z" fill="white"/>
</mask>
<g mask="url(#mask0_3_839)">
<path d="M21.2215 2.33053L16.6885 0.136657C16.1638 -0.117287 15.5367 -0.0101715 15.125 0.403752L0.285633 14.0038C-0.113507 14.3697 -0.113049 15.0013 0.286617 15.3665L1.49875 16.4742C1.82549 16.7728 2.31759 16.7947 2.66937 16.5265L20.5393 2.89967C21.1388 2.44251 22 2.87232 22 3.62873V3.57584C22 3.04487 21.6973 2.56087 21.2215 2.33053Z" fill="#D9D9D9"/>
<g filter="url(#filter1_d_3_839)">
<path d="M21.2215 19.6696L16.6885 21.8635C16.1638 22.1175 15.5367 22.0103 15.125 21.5963L0.285633 7.9962C-0.113507 7.6304 -0.113049 6.99874 0.286617 6.63352L1.49875 5.52588C1.82549 5.2273 2.31759 5.20532 2.66937 5.47359L20.5393 19.1004C21.1388 19.5577 22 19.1278 22 18.3713V18.4243C22 18.9553 21.6973 19.4393 21.2215 19.6696Z" fill="#E6E6E6"/>
</g>
<g filter="url(#filter2_d_3_839)">
<path d="M16.6887 21.8638C16.1639 22.1177 15.5368 22.0104 15.125 21.5963C15.6324 22.1063 16.5 21.7451 16.5 21.0239V0.976186C16.5 0.254901 15.6324 -0.106342 15.125 0.403709C15.5368 -0.0102606 16.1639 -0.117514 16.6887 0.136199L21.2208 2.32703C21.697 2.55724 22 3.04144 22 3.57263V18.4276C22 18.9588 21.697 19.4428 21.2208 19.6731L16.6887 21.8638Z" fill="white"/>
</g>
<g style="mix-blend-mode:overlay" opacity="0.25">
<path style="mix-blend-mode:overlay" opacity="0.25" fill-rule="evenodd" clip-rule="evenodd" d="M15.5872 21.906C15.9337 22.0417 16.3288 22.0331 16.6785 21.8639L21.208 19.6732C21.684 19.4431 21.9865 18.9589 21.9865 18.4277V3.57274C21.9865 3.04157 21.684 2.55739 21.208 2.32716L16.6785 0.13631C16.2195 -0.0856833 15.6824 -0.0312962 15.2795 0.263075C15.222 0.305137 15.1672 0.352083 15.1157 0.40382L6.44469 8.35563L2.66773 5.47374C2.31615 5.20547 1.82437 5.22745 1.49783 5.52603L0.286429 6.63366C-0.112986 6.99891 -0.113445 7.63055 0.285443 7.99637L3.56091 11.0001L0.285443 14.0039C-0.113445 14.3697 -0.112986 15.0014 0.286429 15.3666L1.49783 16.4743C1.82437 16.7728 2.31615 16.7947 2.66773 16.5266L6.44469 13.6447L15.1157 21.5965C15.2529 21.7344 15.414 21.8383 15.5872 21.906ZM16.4899 5.98L9.91058 11.0001L16.4899 16.0203V5.98Z" fill="url(#paint0_linear_3_839)"/>
</g>
</g>
</g>
</g>
<defs>
<filter id="filter0_d_3_839" x="-6.25" y="-4.16667" width="34.5" height="34.5" filterUnits="userSpaceOnUse" color-interpolation-filters="sRGB">
<feFlood flood-opacity="0" result="BackgroundImageFix"/>
<feColorMatrix in="SourceAlpha" type="matrix" values="0 0 0 0 0 0 0 0 0 0 0 0 0 0 0 0 0 0 127 0" result="hardAlpha"/>
<feOffset dy="2.08333"/>
<feGaussianBlur stdDeviation="3.125"/>
<feColorMatrix type="matrix" values="0 0 0 0 0 0 0 0 0 0 0 0 0 0 0 0 0 0 0.15 0"/>
<feBlend mode="normal" in2="BackgroundImageFix" result="effect1_dropShadow_3_839"/>
<feBlend mode="normal" in="SourceGraphic" in2="effect1_dropShadow_3_839" result="shape"/>
</filter>
<filter id="filter1_d_3_839" x="-8.34677" y="-3.04708" width="38.6801" height="33.3803" filterUnits="userSpaceOnUse" color-interpolation-filters="sRGB">
<feFlood flood-opacity="0" result="BackgroundImageFix"/>
<feColorMatrix in="SourceAlpha" type="matrix" values="0 0 0 0 0 0 0 0 0 0 0 0 0 0 0 0 0 0 127 0" result="hardAlpha"/>
<feOffset/>
<feGaussianBlur stdDeviation="4.16667"/>
<feColorMatrix type="matrix" values="0 0 0 0 0 0 0 0 0 0 0 0 0 0 0 0 0 0 0.25 0"/>
<feBlend mode="overlay" in2="BackgroundImageFix" result="effect1_dropShadow_3_839"/>
<feBlend mode="normal" in="SourceGraphic" in2="effect1_dropShadow_3_839" result="shape"/>
</filter>
<filter id="filter2_d_3_839" x="6.79166" y="-8.33334" width="23.5417" height="38.6668" filterUnits="userSpaceOnUse" color-interpolation-filters="sRGB">
<feFlood flood-opacity="0" result="BackgroundImageFix"/>
<feColorMatrix in="SourceAlpha" type="matrix" values="0 0 0 0 0 0 0 0 0 0 0 0 0 0 0 0 0 0 127 0" result="hardAlpha"/>
<feOffset/>
<feGaussianBlur stdDeviation="4.16667"/>
<feColorMatrix type="matrix" values="0 0 0 0 0 0 0 0 0 0 0 0 0 0 0 0 0 0 0.25 0"/>
<feBlend mode="overlay" in2="BackgroundImageFix" result="effect1_dropShadow_3_839"/>
<feBlend mode="normal" in="SourceGraphic" in2="effect1_dropShadow_3_839" result="shape"/>
</filter>
<linearGradient id="paint0_linear_3_839" x1="10.9866" y1="0.000123979" x2="10.9866" y2="22.0004" gradientUnits="userSpaceOnUse">
<stop stop-color="white"/>
<stop offset="1" stop-color="white" stop-opacity="0"/>
</linearGradient>
<clipPath id="clip0_3_839">
<rect width="22" height="22" fill="white"/>
</clipPath>
</defs>
</svg>
